<svg xmlns="http://www.w3.org/2000/svg" width="16" height="12.442" viewBox="0 0 16 12.442">
  <path id="Icon_awesome-home" data-name="Icon awesome-home" d="M7.787,4.48,2.666,8.7V13.25a.444.444,0,0,0,.444.444l3.113-.008a.444.444,0,0,0,.442-.444V10.583a.444.444,0,0,1,.444-.444H8.887a.444.444,0,0,1,.444.444V13.24a.444.444,0,0,0,.444.446l3.111.009a.444.444,0,0,0,.444-.444V8.694L8.212,4.48a.339.339,0,0,0-.425,0Zm8.089,2.867L13.554,5.432V1.585a.333.333,0,0,0-.333-.333H11.666a.333.333,0,0,0-.333.333V3.6L8.846,1.556a1.333,1.333,0,0,0-1.694,0L.12,7.346a.333.333,0,0,0-.044.469l.708.861a.333.333,0,0,0,.47.045L7.787,3.341a.339.339,0,0,1,.425,0l6.534,5.381a.333.333,0,0,0,.469-.044l.708-.861a.333.333,0,0,0-.047-.47Z" transform="translate(0.001 -1.252)" fill="#b3bacc"/>
</svg>
