<svg xmlns="http://www.w3.org/2000/svg" viewBox="0 0 165.6 110.41"><defs><style>.cls-1{fill:#181818;}.cls-2{fill:#fff;}</style></defs><title>Fichier 2</title><g id="Calque_2" data-name="Calque 2"><g id="Calque_1-2" data-name="Calque 1"><polygon class="cls-1" points="82.8 92.52 40.68 78.12 28.8 90.36 82.8 110.34 82.8 92.52"/><path class="cls-1" d="M28.8,90.61,40.68,78.37,12.78,15.91,0,28.87"/><path class="cls-1" d="M12.78,15.91A49.09,49.09,0,0,1,22,11c11.73-4.73,22.2-3.53,28.19-2.78A70.77,70.77,0,0,1,82.8,21.31V92.77L40.68,78.37Z"/><path class="cls-1" d="M152.82,15.91a49.09,49.09,0,0,0-9.25-5c-11.73-4.73-22.2-3.53-28.19-2.78A70.77,70.77,0,0,0,82.8,21.31V92.77l42.12-14.4Z"/><polygon class="cls-2" points="8.88 25.05 6.12 27.48 32.52 84.43 39.8 76.41 13.92 20.47 11.28 22.44 26.88 55.39 25.92 57.31 25.32 58.27 8.88 25.05"/><polygon class="cls-2" points="80.19 92.77 42.96 79.75 36.48 86.83 80.19 103.39 80.19 99.67 52.12 88.75 53.16 86.95 80.19 96.07 80.19 92.77"/><polygon class="cls-1" points="82.8 92.59 124.92 78.19 136.8 90.43 82.8 110.41 82.8 92.59"/><path class="cls-1" d="M136.8,90.43,124.92,78.19l27.9-62.46,12.78,13"/><polygon class="cls-2" points="156.72 24.87 159.48 27.3 133.08 84.25 125.8 76.23 151.68 20.29 154.32 22.26 138.72 55.21 139.68 57.13 140.28 58.09 156.72 24.87"/><polygon class="cls-2" points="85.41 92.59 122.64 79.57 129.12 86.65 85.41 103.21 85.41 99.49 113.48 88.57 112.44 86.77 85.41 95.89 85.41 92.59"/><path class="cls-1" d="M69.12,9.72a9.3,9.3,0,0,0,5.22-3.6A9.23,9.23,0,0,0,76,0a8.87,8.87,0,0,0,4,4.86,8.5,8.5,0,0,0,4.14,1.08,8.66,8.66,0,0,0-4.5,9.72,8.36,8.36,0,0,0-4.5-5.76A8.07,8.07,0,0,0,69.12,9.72Z"/><path class="cls-2" d="M79.24,32.42a7.64,7.64,0,0,0,7-7.13,7.47,7.47,0,0,0,2.63,4.55,7.1,7.1,0,0,0,3.28,1.44,7.27,7.27,0,0,0-5,7.44,7,7,0,0,0-3-5.36A6.78,6.78,0,0,0,79.24,32.42Z"/><path class="cls-2" d="M104.78,70.82a4,4,0,0,0,3.58-3.68,3.88,3.88,0,0,0,1.36,2.35,3.66,3.66,0,0,0,1.69.74,3.8,3.8,0,0,0-2,1.5,3.73,3.73,0,0,0-.61,2.34,3.63,3.63,0,0,0-1.53-2.77A3.51,3.51,0,0,0,104.78,70.82Z"/><circle class="cls-1" cx="91.12" cy="8.87" r="2.92"/><circle class="cls-1" cx="84.74" cy="13.73" r="1.94"/><circle class="cls-2" cx="71.06" cy="20.93" r="1.94"/><circle class="cls-2" cx="114.98" cy="21.17" r="1.94"/><circle class="cls-2" cx="104.4" cy="17.3" r="1.94"/><circle class="cls-2" cx="63.86" cy="27.23" r="1.94"/><circle class="cls-2" cx="48.6" cy="67.5" r="1.94"/><circle class="cls-2" cx="82.12" cy="80.06" r="1.94"/><circle class="cls-2" cx="91.12" cy="72.54" r="1.94"/><circle class="cls-2" cx="107.27" cy="84.25" r="1.94"/><circle class="cls-2" cx="86.67" cy="62.82" r="1.37"/><circle class="cls-2" cx="74.93" cy="48.6" r="1.94"/><circle class="cls-2" cx="30.02" cy="24.8" r="1.94"/><circle class="cls-2" cx="33.11" cy="58.9" r="1.94"/><circle class="cls-2" cx="33.11" cy="17.62" r="3.09"/><path class="cls-2" d="M134.22,20.19c.13.54-.11.68-.52.32l-3.8-3.28a1.49,1.49,0,0,0-1.62-.14L124,19.69c-.48.29-.69.11-.47-.4l2-4.63a1.5,1.5,0,0,0-.37-1.58L121.3,9.8c-.42-.36-.31-.62.24-.57l5,.42a1.48,1.48,0,0,0,1.39-.83l1.95-4.63c.21-.51.49-.49.61,0l1.15,4.89a1.46,1.46,0,0,0,1.22,1.06l5,.42c.54.05.61.32.14.6l-4.3,2.6a1.49,1.49,0,0,0-.63,1.49Z"/><path class="cls-2" d="M49.33,21.85c.13.53-.11.68-.53.32L47.23,20.8a1.47,1.47,0,0,0-1.62-.13l-1.78,1.08c-.47.28-.68.1-.47-.41l.81-1.92a1.44,1.44,0,0,0-.37-1.57l-1.57-1.37c-.42-.36-.31-.61.24-.57l2.07.18a1.47,1.47,0,0,0,1.39-.84l.81-1.92c.21-.5.49-.48.61.05l.48,2a1.46,1.46,0,0,0,1.22,1.06l2.08.18c.54,0,.61.31.14.6l-1.79,1.08a1.45,1.45,0,0,0-.62,1.49Z"/><path class="cls-2" d="M49.49,43.89c.12.54-.12.68-.53.32L47.57,43A1.46,1.46,0,0,0,46,42.88l-1.57.94c-.47.29-.68.11-.47-.4l.71-1.69a1.46,1.46,0,0,0-.37-1.58L42.88,39c-.42-.36-.31-.62.24-.57l1.82.15a1.46,1.46,0,0,0,1.39-.84L47,36c.21-.5.49-.48.62.05l.41,1.79a1.48,1.48,0,0,0,1.23,1.06l1.83.15c.54,0,.61.32.14.6l-1.57,1a1.48,1.48,0,0,0-.63,1.5Z"/><path class="cls-2" d="M69.42,69.9c.26.49.07.69-.43.45L66.17,69a1.48,1.48,0,0,0-1.59.28L62.4,71.51c-.39.39-.64.27-.56-.27l.44-3.11a1.47,1.47,0,0,0-.76-1.43L58.7,65.32c-.5-.24-.46-.52.08-.61l3.1-.54A1.47,1.47,0,0,0,63,63l.44-3.11c.08-.54.35-.59.61-.11l1.47,2.78a1.5,1.5,0,0,0,1.46.71l3.09-.54c.54-.1.67.15.29.54l-2.18,2.26a1.45,1.45,0,0,0-.23,1.6Z"/><circle class="cls-2" cx="112.23" cy="46.67" r="16"/><ellipse class="cls-1" cx="115.93" cy="46.67" rx="13.19" ry="14"/></g></g></svg>