<svg xmlns="http://www.w3.org/2000/svg" width="16" height="13.501" viewBox="0 0 16 13.501">
  <path id="Icon_awesome-tasks" data-name="Icon awesome-tasks" d="M4.363,1.359a.375.375,0,0,0-.531,0L1.842,3.338l-.709-.691a.375.375,0,0,0-.531,0L.11,3.138a.375.375,0,0,0,0,.531L1.6,5.15a.4.4,0,0,0,.55,0l.487-.488L4.891,2.406a.378.378,0,0,0,0-.531Zm0,4.975a.375.375,0,0,0-.531,0L1.842,8.325l-.709-.691a.375.375,0,0,0-.531,0l-.491.49a.375.375,0,0,0,0,.531L1.594,10.14a.4.4,0,0,0,.55,0l.491-.49L4.891,7.393a.375.375,0,0,0,0-.528ZM2,11.75a1.5,1.5,0,1,0,0,3,1.5,1.5,0,1,0,0-3Zm13.5.5h-9a.5.5,0,0,0-.5.5v1a.5.5,0,0,0,.5.5h9a.5.5,0,0,0,.5-.5v-1A.5.5,0,0,0,15.5,12.25Zm0-10h-9a.5.5,0,0,0-.5.5v1a.5.5,0,0,0,.5.5h9a.5.5,0,0,0,.5-.5v-1A.5.5,0,0,0,15.5,2.25Zm0,5h-9a.5.5,0,0,0-.5.5v1a.5.5,0,0,0,.5.5h9a.5.5,0,0,0,.5-.5v-1A.5.5,0,0,0,15.5,7.25Z" transform="translate(0 -1.249)" fill="#2658de"/>
</svg>
