<svg xmlns="http://www.w3.org/2000/svg" width="16" height="11.2" viewBox="0 0 16 11.2">
  <path id="Icon_awesome-users" data-name="Icon awesome-users" d="M2.4,6.05A1.6,1.6,0,1,0,.8,4.45,1.6,1.6,0,0,0,2.4,6.05Zm11.2,0A1.6,1.6,0,1,0,12,4.45,1.6,1.6,0,0,0,13.6,6.05Zm.8.8H12.8a1.6,1.6,0,0,0-1.127.465A3.657,3.657,0,0,1,13.55,10.05H15.2a.8.8,0,0,0,.8-.8v-.8A1.6,1.6,0,0,0,14.4,6.85ZM8,6.85a2.8,2.8,0,1,0-2.8-2.8A2.8,2.8,0,0,0,8,6.85Zm1.92.8H9.712a3.866,3.866,0,0,1-3.425,0H6.08A2.881,2.881,0,0,0,3.2,10.53v.72a1.2,1.2,0,0,0,1.2,1.2h7.2a1.2,1.2,0,0,0,1.2-1.2v-.72A2.881,2.881,0,0,0,9.92,7.65ZM4.327,7.315A1.6,1.6,0,0,0,3.2,6.85H1.6A1.6,1.6,0,0,0,0,8.45v.8a.8.8,0,0,0,.8.8H2.447A3.666,3.666,0,0,1,4.327,7.315Z" transform="translate(0 -1.25)" fill="#b3bacc"/>
</svg>
